<svg id="Grupo_99" data-name="Grupo 99" xmlns="http://www.w3.org/2000/svg" width="270.715" height="54.654" viewBox="0 0 270.715 54.654">
<path id="Caminho_1" data-name="Caminho 1" d="M43.885-570.662c-.172.134-.373.275-.591.423h-.005c-.307.206-.651.414-1.019.617a17.005,17.005,0,0,1-7.787,2.075l-.41-.013h-.014a11.4,11.4,0,0,1-2.324-.371,11.2,11.2,0,0,1-2.085-.8,9.4,9.4,0,0,1-5.308-8.164v-.015h0a7.342,7.342,0,0,1,2.729-5.907A11.315,11.315,0,0,1,34.2-585V-585h.034V-585l9.646.11v14.232Zm12.29-26.532a14.63,14.63,0,0,0-6.09-11.937,22.094,22.094,0,0,0-13.119-4.2h-.034a44.6,44.6,0,0,0-10.15,1.153,47.856,47.856,0,0,0-10.14,3.9l-.447.216.2.426,3.2,6.8.231.5.522-.243a48.351,48.351,0,0,1,7.547-2.91,25.069,25.069,0,0,1,6.838-.889h0a10.752,10.752,0,0,1,6.551,2.175v0a6.966,6.966,0,0,1,2.849,5.454H44.13v3.02H31.658l-.385.006h0a26.164,26.164,0,0,0-4.424.433,22.633,22.633,0,0,0-4.078,1.134c-6.576,2.514-11.157,7.94-11.335,15.469v.018l0,.342a16.234,16.234,0,0,0,.574,3.951,16.883,16.883,0,0,0,1.471,3.62,19.912,19.912,0,0,0,17.051,9.947l.567.014v-.116a41.908,41.908,0,0,0,4.305-.19,39.835,39.835,0,0,0,4.2-.629,34.606,34.606,0,0,0,16.528-8.312l.17-.148v-.21l-.126-28.784Z" transform="translate(-11.434 613.331)" fill="#fff" fill-rule="evenodd"></path>
<path id="Caminho_2" data-name="Caminho 2" d="M206.854-565.261,203.54-571.6l-.245-.46-.5.224-1.049.473c-4.535,2.054-8.584,3.882-13.818,3.78h0c-.187,0-.387-.01-.6-.023a11.173,11.173,0,0,1-3.209-.685,11.142,11.142,0,0,1-2.762-1.545c-4.329-3.263-6.654-9.534-6.654-15.483v-.66a25.2,25.2,0,0,1,.317-3.762,25.2,25.2,0,0,1,.828-3.662c1.8-5.855,5.644-10.6,11.116-10.9l.138-.008a15.12,15.12,0,0,1,1.634,0h0c.553.028,1.127.078,1.717.161a36.63,36.63,0,0,1,9.52,2.852l.467.209.249-.428,3.683-6.344.242-.421-.433-.247-.169-.1h0a34.745,34.745,0,0,0-4.254-2.084,34.507,34.507,0,0,0-4.4-1.447c-7.6-1.94-15.394-1.108-21.159,2.62l-.01.008-.01.011v0a23.623,23.623,0,0,0-3.111,2.391,25.036,25.036,0,0,0-2.658,2.85,30.574,30.574,0,0,0-6.37,18.955c0,.269.009.574.017.9v.005a30.428,30.428,0,0,0,.639,5.34,30.206,30.206,0,0,0,1.577,5.175c3.417,8.447,10.666,15.2,21.063,15.287v0a39.79,39.79,0,0,0,11.276-1.583,44.675,44.675,0,0,0,10.039-4.415l.414-.24Z" transform="translate(-85.113 613.263)" fill="#fff" fill-rule="evenodd"></path>
<path id="Caminho_3" data-name="Caminho 3" d="M106.773-588.265a13.239,13.239,0,0,1,.54-1.717c1.032-2.591,2.876-4.441,5.944-4.441v0l.191,0a5.578,5.578,0,0,1,1.489.234,4.867,4.867,0,0,1,1.248.571c1.842,1.177,2.9,3.505,3.2,6.189H106.59c.055-.287.116-.573.184-.836Zm21.753,17.06-.477-.872-.968.418a56.273,56.273,0,0,1-5.762,2.253,19.123,19.123,0,0,1-5.4.888H115.9c-.2,0-.405,0-.613,0a8.792,8.792,0,0,1-6.361-3,12.659,12.659,0,0,1-2.881-8.142l-.019-.5h24.281l-.012-.993c-.089-6.234-1.237-11.329-3.91-14.9-2.753-3.673-7.05-5.716-13.4-5.716-.392,0-.8.006-1.228.035a18.334,18.334,0,0,0-4.821.884,15.561,15.561,0,0,0-3.927,1.96c-5.668,3.944-7.821,11.29-7.89,18.071l0,.011v.582l0,.01a20.2,20.2,0,0,0,.21,2.66,19.915,19.915,0,0,0,.522,2.577,19.691,19.691,0,0,0,6.836,10.5l.014.009.237.179.014.009a14.531,14.531,0,0,0,2.48,1.463,17.2,17.2,0,0,0,2.73,1,28.568,28.568,0,0,0,14.227-.216v0a23.373,23.373,0,0,0,4.086-1.4,42.4,42.4,0,0,0,4.055-2.125l.818-.473-.425-.778Z" transform="translate(-52.181 608.466)" fill="#fff" fill-rule="evenodd"></path>
<path id="Caminho_4" data-name="Caminho 4" d="M279.838-579.2h2.138l-3.235-5.644a3.252,3.252,0,0,0,3.005-3.333,3.493,3.493,0,0,0-3.585-3.466h-3.944V-579.2h1.791v-5.627h.652l3.177,5.627Zm-1.85-11.039a2.048,2.048,0,0,1,1.968,2,1.954,1.954,0,0,1-1.981,2.063l-1.965-.021v-4.046Zm10.726,10.959a5.45,5.45,0,0,0,1.637-.792l-.5-1.021a5.554,5.554,0,0,1-2.427.755c-1.328.036-2.368-1.179-2.291-3.161H290.2c-.039-2.81-.9-4.561-3.392-4.561-2.6,0-3.481,2.443-3.5,4.636a4.756,4.756,0,0,0,1.507,3.623,4.335,4.335,0,0,0,3.9.52Zm-1.849-7.53c.983,0,1.483.96,1.52,2.082h-3.177c.14-1.121.6-2.082,1.657-2.082Zm5.279,5.429c0,1.6,1.175,2.486,3.213,2.294v-1.118c-1.076-.04-1.5-.252-1.5-1.194v-11.573l-1.711.56v11.031Zm7.107,2.317a5.347,5.347,0,0,0,3.944-1.529l-.019-4.89a2.761,2.761,0,0,0-2.93-2.657,6.063,6.063,0,0,0-3.139.848l.5,1.155a4.694,4.694,0,0,1,2.294-.653,1.487,1.487,0,0,1,1.562,1.387v.6H299.42A2.865,2.865,0,0,0,296.339-582a2.984,2.984,0,0,0,2.911,2.95v-.016Zm2.17-4.417v2.541a2.516,2.516,0,0,1-1.555.579,1.7,1.7,0,0,1-1.677-1.671,1.467,1.467,0,0,1,1.637-1.468l1.6.018Zm6.878,4.452a5.93,5.93,0,0,0,3.293-1.007l-.52-1.075a4.935,4.935,0,0,1-2.371.729c-1.384-.014-2.153-1.615-2.153-3.1-.022-1.558.712-3.23,2-3.309a4.485,4.485,0,0,1,2.08.52l.577-1.08a4.224,4.224,0,0,0-4.6-.172,4.929,4.929,0,0,0-1.866,4.042c0,2.141,1.287,4.433,3.561,4.452Zm4.811-.171H314.9v-9.056l-1.8.6.016,8.458Zm-.308-11.441a1.166,1.166,0,0,0,1.175,1.171,1.166,1.166,0,0,0,1.177-1.171A1.141,1.141,0,0,0,314-591.819a1.164,1.164,0,0,0-1.174,1.173Zm7.894,11.594c2.739.019,4.024-2.333,4.024-4.682,0-2.312-1.463-4.391-3.985-4.411s-4.006,2.1-4.006,4.411c0,2.348,1.255,4.665,3.966,4.682Zm0-7.724c1.6.1,2.119,1.578,2.119,3.064-.018,1.616-.361,3.348-2.079,3.386-1.58.02-2.1-1.77-2.1-3.407,0-1.483.387-2.926,2.08-3.042ZM331.65-579.2h1.793v-6.552a2.4,2.4,0,0,0-2.04-2.292,5.543,5.543,0,0,0-2.7.159,7.008,7.008,0,0,0-2.325,1.249v7.437h1.791v-7.054a3.34,3.34,0,0,1,1.654-.556,1.614,1.614,0,0,1,1.827,1.73v5.88Zm6.2.136A5.343,5.343,0,0,0,341.8-580.6l-.018-4.89a2.759,2.759,0,0,0-2.928-2.657,6.037,6.037,0,0,0-3.137.848l.5,1.155a4.706,4.706,0,0,1,2.3-.653,1.484,1.484,0,0,1,1.559,1.387v.6h-2.042a2.867,2.867,0,0,0-3.08,2.807,2.982,2.982,0,0,0,2.906,2.95v-.016Zm2.173-4.417v2.541a2.522,2.522,0,0,1-1.553.579,1.7,1.7,0,0,1-1.682-1.671,1.468,1.468,0,0,1,1.64-1.468l1.6.018Zm13.06,4.281h1.806v-6.474a2.633,2.633,0,0,0-2.773-2.447,4.914,4.914,0,0,0-2.673.752,3.076,3.076,0,0,0-2.061-.773,5.766,5.766,0,0,0-3.737,1.5v7.437h1.793V-586.3a2.073,2.073,0,0,1,1.1-.5c1.29-.075,1.809.559,1.809,1.733l.015,5.857h1.814v-6.552a2.338,2.338,0,0,0-.058-.539c1.233-.866,2.967-.749,2.967,1.234v5.857Zm8.952-.08a5.517,5.517,0,0,0,1.636-.792l-.5-1.021a5.54,5.54,0,0,1-2.424.755c-1.329.036-2.368-1.179-2.29-3.161h5.059c-.037-2.81-.9-4.561-3.389-4.561-2.6,0-3.484,2.443-3.5,4.636a4.718,4.718,0,0,0,1.5,3.623,4.346,4.346,0,0,0,3.911.52Zm-1.847-7.53c.983,0,1.482.96,1.519,2.082h-3.176c.133-1.121.6-2.082,1.657-2.082Zm10.263,7.61h1.792v-6.552a2.4,2.4,0,0,0-2.046-2.292,5.517,5.517,0,0,0-2.694.159,6.925,6.925,0,0,0-2.327,1.249v7.437h1.788v-7.054a3.333,3.333,0,0,1,1.657-.556,1.618,1.618,0,0,1,1.83,1.73v5.88Zm4.042-2.181c0,1.581,1.234,2.472,3.294,2.277v-1.1c-1.081-.057-1.526-.269-1.526-1.211v-5.239h1.526v-1.311h-1.526v-2.888l-1.769.637v2.251h-.925v1.311h.925v5.274Zm8.587,2.333c2.735.019,4.028-2.333,4.028-4.682,0-2.312-1.466-4.391-3.989-4.411s-4,2.1-4,4.411c0,2.348,1.253,4.665,3.966,4.682Zm0-7.724c1.6.1,2.12,1.578,2.12,3.064-.023,1.616-.37,3.348-2.082,3.386-1.579.02-2.1-1.77-2.1-3.407,0-1.483.387-2.926,2.074-3.042Zm14.732,7.743a5.927,5.927,0,0,0,3.291-1.007l-.519-1.075a4.929,4.929,0,0,1-2.371.729c-1.386-.014-2.155-1.615-2.155-3.1-.021-1.558.714-3.23,2-3.309a4.492,4.492,0,0,1,2.081.52l.576-1.08a4.218,4.218,0,0,0-4.6-.172,4.923,4.923,0,0,0-1.871,4.042c0,2.141,1.292,4.433,3.564,4.452Zm8.1-.019c2.734.019,4.024-2.333,4.024-4.682,0-2.312-1.463-4.391-3.981-4.411s-4.005,2.1-4.005,4.411c0,2.348,1.246,4.665,3.962,4.682Zm0-7.724c1.6.1,2.119,1.578,2.119,3.064-.019,1.616-.364,3.348-2.076,3.386-1.58.02-2.1-1.77-2.1-3.407,0-1.483.387-2.926,2.08-3.042Zm15.214,7.572h1.812v-6.474a2.635,2.635,0,0,0-2.773-2.447,4.928,4.928,0,0,0-2.682.752,3.063,3.063,0,0,0-2.056-.773,5.758,5.758,0,0,0-3.737,1.5v7.437h1.791V-586.3a2.075,2.075,0,0,1,1.1-.5c1.289-.075,1.808.559,1.808,1.733l.022,5.857h1.807v-6.552a2.986,2.986,0,0,0-.054-.539c1.23-.866,2.965-.749,2.965,1.234v5.857ZM279.842-557.446h2.133l-3.232-5.648a3.248,3.248,0,0,0,3.008-3.326,3.493,3.493,0,0,0-3.587-3.468h-3.946v12.443h1.794v-5.623h.649l3.182,5.623Zm-1.849-11.039a2.043,2.043,0,0,1,1.962,2,1.949,1.949,0,0,1-1.979,2.06l-1.965-.02v-4.042Zm10.723,10.955a5.423,5.423,0,0,0,1.637-.788l-.5-1.023a5.544,5.544,0,0,1-2.423.752c-1.332.038-2.371-1.176-2.3-3.157H290.2c-.042-2.812-.9-4.563-3.391-4.563-2.595,0-3.483,2.444-3.5,4.641a4.715,4.715,0,0,0,1.5,3.616,4.3,4.3,0,0,0,3.9.521Zm-1.848-7.527c.984,0,1.48.964,1.522,2.08h-3.175c.134-1.117.594-2.08,1.653-2.08Zm7.471,7.839c1.6,0,3.428-.85,3.468-2.8a2.1,2.1,0,0,0-.867-1.811,6.794,6.794,0,0,0-1.522-.768c-.519-.191-1.079-.407-1.5-.6-.383-.191-.579-.4-.579-.753,0-.713.7-1.094,1.446-1.094a3.818,3.818,0,0,1,1.928.612l.675-1.17a5.282,5.282,0,0,0-2.66-.849,2.827,2.827,0,0,0-3.08,2.675c0,1.56,1.2,2.022,2.388,2.465.249.115.524.231.774.324.537.2,1.228.408,1.249,1.1.021.847-.846,1.251-1.732,1.251a3.619,3.619,0,0,1-2.212-.83l-.694,1.139a4.855,4.855,0,0,0,2.924,1.1Zm9.032-.018c2.443-.079,3.522-2.236,3.522-4.393-.018-2.444-1.056-4.775-3.506-4.738-2.885.041-4,1.5-4.079,1.6v11.175l1.771.63v-4.853a4.4,4.4,0,0,0,2.292.6v-.018ZM303.16-565c1.5.061,1.754,1.87,1.754,3.315.018,1.441-.236,3-1.833,3.1a3.7,3.7,0,0,1-2-.612v-5.224a3.433,3.433,0,0,1,2.081-.6v.02Zm9.278,7.708c2.734.02,4.026-2.336,4.026-4.682,0-2.313-1.466-4.393-3.987-4.413s-4,2.1-4,4.413c0,2.346,1.252,4.659,3.963,4.682Zm0-7.727c1.6.1,2.119,1.581,2.119,3.062-.018,1.617-.365,3.349-2.079,3.391-1.581.017-2.1-1.774-2.1-3.407,0-1.483.388-2.929,2.082-3.046Zm10.958,7.574h1.789V-564a2.4,2.4,0,0,0-2.039-2.295,5.65,5.65,0,0,0-2.694.154,7.03,7.03,0,0,0-2.333,1.254v7.437h1.791V-564.5a3.327,3.327,0,0,1,1.657-.559,1.618,1.618,0,0,1,1.83,1.733v5.877Zm6.045.229c1.6,0,3.432-.85,3.465-2.8a2.1,2.1,0,0,0-.864-1.811,6.748,6.748,0,0,0-1.522-.768c-.52-.191-1.079-.407-1.5-.6-.383-.191-.575-.4-.575-.753,0-.713.694-1.094,1.444-1.094a3.82,3.82,0,0,1,1.925.612l.679-1.17a5.277,5.277,0,0,0-2.66-.849,2.829,2.829,0,0,0-3.085,2.675c0,1.56,1.2,2.022,2.391,2.465.25.115.518.231.767.324.544.2,1.233.408,1.254,1.1.02.847-.846,1.251-1.732,1.251a3.637,3.637,0,0,1-2.212-.83l-.7,1.139a4.859,4.859,0,0,0,2.927,1.1Zm7.4-.1a5.318,5.318,0,0,0,3.947-1.524l-.019-4.891a2.757,2.757,0,0,0-2.928-2.657,6.045,6.045,0,0,0-3.14.848l.5,1.154a4.73,4.73,0,0,1,2.294-.65,1.483,1.483,0,0,1,1.559,1.383v.6h-2.042a2.862,2.862,0,0,0-3.077,2.81,2.981,2.981,0,0,0,2.906,2.952v-.022Zm2.175-4.41v2.542a2.572,2.572,0,0,1-1.561.575,1.7,1.7,0,0,1-1.676-1.67,1.468,1.468,0,0,1,1.64-1.465l1.6.02Zm7.722,4.432c2.311.075,3.5-2.294,3.524-4.745,0-2.152-1.08-4.309-3.524-4.383a4.436,4.436,0,0,0-2.292.591v-5.41l-1.749.6V-558.9c.052.1,1.171,1.525,4.04,1.623v-.02Zm-.29-7.727c1.6.1,1.885,1.641,1.885,3.079s-.4,3.276-1.789,3.332a3.365,3.365,0,0,1-2.1-.556v-5.316a3.9,3.9,0,0,1,1.983-.539Zm5.854,7.574h1.79V-566.5l-1.811.6.021,8.456Zm-.305-11.444a1.162,1.162,0,0,0,1.172,1.176,1.165,1.165,0,0,0,1.172-1.176,1.138,1.138,0,0,0-1.153-1.172,1.165,1.165,0,0,0-1.176,1.172Zm4.466,9.261c0,1.6,1.174,2.491,3.213,2.293v-1.118c-1.08-.039-1.5-.251-1.5-1.192v-11.573l-1.71.559v11.03Zm4.888,2.182h1.793V-566.5l-1.812.6.018,8.456Zm-.308-11.444a1.167,1.167,0,0,0,1.173,1.176,1.17,1.17,0,0,0,1.179-1.176,1.141,1.141,0,0,0-1.161-1.172,1.167,1.167,0,0,0-1.173,1.172Zm7.51,11.6a6.678,6.678,0,0,0,4.175-1.566v-12.4l-1.747.6v4.715a5.715,5.715,0,0,0-2.272-.5c-2.468,0-3.619,2.542-3.619,4.6,0,1.984,1.015,4.549,3.483,4.527l-.021.022Zm2.444-7.167v5.2a3.946,3.946,0,0,1-2.021.693c-1.445,0-1.96-1.867-1.96-3.216,0-1.4.536-3.309,2.06-3.309a3.209,3.209,0,0,1,1.921.633Zm6.337,7.145a5.3,5.3,0,0,0,3.945-1.524l-.016-4.891a2.757,2.757,0,0,0-2.927-2.657,6.035,6.035,0,0,0-3.139.848l.5,1.154a4.716,4.716,0,0,1,2.291-.65,1.484,1.484,0,0,1,1.561,1.383v.6H377.5a2.87,2.87,0,0,0-3.085,2.81,2.985,2.985,0,0,0,2.909,2.952v-.022Zm2.176-4.41v2.542a2.561,2.561,0,0,1-1.56.575,1.7,1.7,0,0,1-1.674-1.67,1.467,1.467,0,0,1,1.637-1.465l1.6.02Zm6.855,4.432a6.685,6.685,0,0,0,4.175-1.566v-12.4l-1.747.6v4.715a5.723,5.723,0,0,0-2.276-.5c-2.466,0-3.616,2.542-3.616,4.6,0,1.984,1.017,4.549,3.482,4.527l-.018.022Zm2.441-7.167v5.2a3.954,3.954,0,0,1-2.019.693c-1.443,0-1.966-1.867-1.966-3.216,0-1.4.543-3.309,2.064-3.309a3.2,3.2,0,0,1,1.921.633Zm8.917,6.931a5.438,5.438,0,0,0,1.636-.788l-.5-1.023a5.571,5.571,0,0,1-2.429.752c-1.331.038-2.37-1.176-2.294-3.157H399.2c-.038-2.812-.9-4.563-3.388-4.563-2.6,0-3.482,2.444-3.505,4.641a4.71,4.71,0,0,0,1.5,3.616,4.3,4.3,0,0,0,3.908.521Zm-1.85-7.527c.985,0,1.482.964,1.521,2.08h-3.174C394.348-564.093,394.809-565.057,395.868-565.057Z" transform="translate(-152.228 600.411)" fill="#fff"></path>
</svg>